<mxfile host="app.diagrams.net" modified="2021-11-01T04:20:17.493Z" agent="5.0 (Macintosh; Intel Mac OS X 10_15_7) AppleWebKit/537.36 (KHTML, like Gecko) Chrome/94.0.4606.61 Safari/537.36" etag="rU1iG29uHJgoFA35o38j" version="15.5.0" type="github" pages="5">
  <diagram id="C5RBs43oDa-KdzZeNtuy" name="Chapter 1 ">
    <mxGraphModel dx="1186" dy="562" grid="1" gridSize="10" guides="1" tooltips="1" connect="1" arrows="1" fold="1" page="1" pageScale="1" pageWidth="827" pageHeight="1169" math="0" shadow="0">
      <root>
        <mxCell id="WIyWlLk6GJQsqaUBKTNV-0" />
        <mxCell id="WIyWlLk6GJQsqaUBKTNV-1" parent="WIyWlLk6GJQsqaUBKTNV-0" />
        <mxCell id="WIyWlLk6GJQsqaUBKTNV-2" value="" style="rounded=0;html=1;jettySize=auto;orthogonalLoop=1;fontSize=11;endArrow=block;endFill=0;endSize=8;strokeWidth=1;shadow=0;labelBackgroundColor=none;edgeStyle=orthogonalEdgeStyle;" parent="WIyWlLk6GJQsqaUBKTNV-1" source="WIyWlLk6GJQsqaUBKTNV-3" target="WIyWlLk6GJQsqaUBKTNV-6" edge="1">
          <mxGeometry relative="1" as="geometry" />
        </mxCell>
        <mxCell id="WIyWlLk6GJQsqaUBKTNV-3" value="Start Game" style="rounded=1;whiteSpace=wrap;html=1;fontSize=12;glass=0;strokeWidth=1;shadow=0;" parent="WIyWlLk6GJQsqaUBKTNV-1" vertex="1">
          <mxGeometry x="340" y="10" width="120" height="40" as="geometry" />
        </mxCell>
        <mxCell id="WIyWlLk6GJQsqaUBKTNV-5" value="" style="edgeStyle=orthogonalEdgeStyle;rounded=0;html=1;jettySize=auto;orthogonalLoop=1;fontSize=11;endArrow=block;endFill=0;endSize=8;strokeWidth=1;shadow=0;labelBackgroundColor=none;" parent="WIyWlLk6GJQsqaUBKTNV-1" source="WIyWlLk6GJQsqaUBKTNV-6" edge="1">
          <mxGeometry x="1" y="142" relative="1" as="geometry">
            <mxPoint x="110" y="52" as="offset" />
            <mxPoint x="530" y="120" as="targetPoint" />
          </mxGeometry>
        </mxCell>
        <mxCell id="WIyWlLk6GJQsqaUBKTNV-6" value="Press start to begin&amp;nbsp;" style="rhombus;whiteSpace=wrap;html=1;shadow=0;fontFamily=Helvetica;fontSize=12;align=center;strokeWidth=1;spacing=6;spacingTop=-4;" parent="WIyWlLk6GJQsqaUBKTNV-1" vertex="1">
          <mxGeometry x="350" y="80" width="100" height="80" as="geometry" />
        </mxCell>
        <mxCell id="XX8NJy2URvOhoocbzBcj-1" value="" style="edgeStyle=orthogonalEdgeStyle;rounded=0;html=1;jettySize=auto;orthogonalLoop=1;fontSize=11;endArrow=block;endFill=0;endSize=8;strokeWidth=1;shadow=0;labelBackgroundColor=none;" edge="1" parent="WIyWlLk6GJQsqaUBKTNV-1" target="XX8NJy2URvOhoocbzBcj-2">
          <mxGeometry x="-0.5" y="80" relative="1" as="geometry">
            <mxPoint as="offset" />
            <mxPoint x="400" y="160" as="sourcePoint" />
            <mxPoint x="400" y="240" as="targetPoint" />
            <Array as="points">
              <mxPoint x="400" y="160" />
            </Array>
          </mxGeometry>
        </mxCell>
        <mxCell id="XX8NJy2URvOhoocbzBcj-2" value="Start Chapter 1 Module" style="rhombus;whiteSpace=wrap;html=1;" vertex="1" parent="WIyWlLk6GJQsqaUBKTNV-1">
          <mxGeometry x="360" y="190" width="80" height="80" as="geometry" />
        </mxCell>
        <mxCell id="XX8NJy2URvOhoocbzBcj-3" value="" style="edgeStyle=orthogonalEdgeStyle;rounded=0;html=1;jettySize=auto;orthogonalLoop=1;fontSize=11;endArrow=block;endFill=0;endSize=8;strokeWidth=1;shadow=0;labelBackgroundColor=none;exitX=0.5;exitY=1;exitDx=0;exitDy=0;" edge="1" parent="WIyWlLk6GJQsqaUBKTNV-1" source="XX8NJy2URvOhoocbzBcj-2">
          <mxGeometry x="1" y="142" relative="1" as="geometry">
            <mxPoint x="110" y="52" as="offset" />
            <mxPoint x="320" y="340" as="sourcePoint" />
            <mxPoint x="400" y="320" as="targetPoint" />
            <Array as="points">
              <mxPoint x="400" y="320" />
            </Array>
          </mxGeometry>
        </mxCell>
        <mxCell id="XX8NJy2URvOhoocbzBcj-4" value="Welcome Marceline" style="shape=parallelogram;perimeter=parallelogramPerimeter;whiteSpace=wrap;html=1;fixedSize=1;" vertex="1" parent="WIyWlLk6GJQsqaUBKTNV-1">
          <mxGeometry x="340" y="320" width="120" height="60" as="geometry" />
        </mxCell>
        <mxCell id="XX8NJy2URvOhoocbzBcj-5" value="Player choose action" style="rhombus;whiteSpace=wrap;html=1;" vertex="1" parent="WIyWlLk6GJQsqaUBKTNV-1">
          <mxGeometry x="360" y="430" width="80" height="80" as="geometry" />
        </mxCell>
        <mxCell id="XX8NJy2URvOhoocbzBcj-6" value="" style="edgeStyle=orthogonalEdgeStyle;rounded=0;html=1;jettySize=auto;orthogonalLoop=1;fontSize=11;endArrow=block;endFill=0;endSize=8;strokeWidth=1;shadow=0;labelBackgroundColor=none;entryX=0.5;entryY=0;entryDx=0;entryDy=0;" edge="1" parent="WIyWlLk6GJQsqaUBKTNV-1" source="XX8NJy2URvOhoocbzBcj-4" target="XX8NJy2URvOhoocbzBcj-5">
          <mxGeometry x="1" y="142" relative="1" as="geometry">
            <mxPoint x="110" y="52" as="offset" />
            <mxPoint x="380" y="380" as="sourcePoint" />
            <mxPoint x="490" y="380" as="targetPoint" />
            <Array as="points" />
          </mxGeometry>
        </mxCell>
        <mxCell id="XX8NJy2URvOhoocbzBcj-7" value="" style="edgeStyle=orthogonalEdgeStyle;rounded=0;html=1;jettySize=auto;orthogonalLoop=1;fontSize=11;endArrow=block;endFill=0;endSize=8;strokeWidth=1;shadow=0;labelBackgroundColor=none;exitX=1;exitY=0.5;exitDx=0;exitDy=0;entryX=0;entryY=0.5;entryDx=0;entryDy=0;" edge="1" parent="WIyWlLk6GJQsqaUBKTNV-1" source="XX8NJy2URvOhoocbzBcj-5" target="XX8NJy2URvOhoocbzBcj-11">
          <mxGeometry x="1" y="142" relative="1" as="geometry">
            <mxPoint x="110" y="52" as="offset" />
            <mxPoint x="490" y="469.5" as="sourcePoint" />
            <mxPoint x="570" y="469.5" as="targetPoint" />
          </mxGeometry>
        </mxCell>
        <mxCell id="XX8NJy2URvOhoocbzBcj-8" value="" style="edgeStyle=orthogonalEdgeStyle;rounded=0;html=1;jettySize=auto;orthogonalLoop=1;fontSize=11;endArrow=block;endFill=0;endSize=8;strokeWidth=1;shadow=0;labelBackgroundColor=none;" edge="1" parent="WIyWlLk6GJQsqaUBKTNV-1">
          <mxGeometry x="1" y="142" relative="1" as="geometry">
            <mxPoint x="110" y="52" as="offset" />
            <mxPoint x="290" y="469.5" as="sourcePoint" />
            <mxPoint x="260" y="470" as="targetPoint" />
            <Array as="points">
              <mxPoint x="360" y="470" />
              <mxPoint x="360" y="470" />
            </Array>
          </mxGeometry>
        </mxCell>
        <mxCell id="XX8NJy2URvOhoocbzBcj-9" value="Start stay module" style="rhombus;whiteSpace=wrap;html=1;" vertex="1" parent="WIyWlLk6GJQsqaUBKTNV-1">
          <mxGeometry x="150" y="425" width="110" height="90" as="geometry" />
        </mxCell>
        <mxCell id="XX8NJy2URvOhoocbzBcj-10" value="Stay at spaceship" style="text;html=1;align=center;verticalAlign=middle;resizable=0;points=[];autosize=1;strokeColor=none;fillColor=none;" vertex="1" parent="WIyWlLk6GJQsqaUBKTNV-1">
          <mxGeometry x="250" y="440" width="110" height="20" as="geometry" />
        </mxCell>
        <mxCell id="XX8NJy2URvOhoocbzBcj-11" value="Start travel module" style="rhombus;whiteSpace=wrap;html=1;" vertex="1" parent="WIyWlLk6GJQsqaUBKTNV-1">
          <mxGeometry x="560" y="420" width="110" height="100" as="geometry" />
        </mxCell>
        <mxCell id="XX8NJy2URvOhoocbzBcj-12" value="" style="edgeStyle=orthogonalEdgeStyle;rounded=0;html=1;jettySize=auto;orthogonalLoop=1;fontSize=11;endArrow=block;endFill=0;endSize=8;strokeWidth=1;shadow=0;labelBackgroundColor=none;exitX=0;exitY=1;exitDx=0;exitDy=0;entryX=0.5;entryY=1;entryDx=0;entryDy=0;" edge="1" parent="WIyWlLk6GJQsqaUBKTNV-1" source="XX8NJy2URvOhoocbzBcj-5" target="XX8NJy2URvOhoocbzBcj-9">
          <mxGeometry x="1" y="142" relative="1" as="geometry">
            <mxPoint x="110" y="52" as="offset" />
            <mxPoint x="360" y="520" as="sourcePoint" />
            <mxPoint x="280" y="560" as="targetPoint" />
            <Array as="points">
              <mxPoint x="380" y="560" />
              <mxPoint x="205" y="560" />
            </Array>
          </mxGeometry>
        </mxCell>
        <mxCell id="XX8NJy2URvOhoocbzBcj-13" value="Rest&amp;nbsp;" style="text;html=1;align=center;verticalAlign=middle;resizable=0;points=[];autosize=1;strokeColor=none;fillColor=none;" vertex="1" parent="WIyWlLk6GJQsqaUBKTNV-1">
          <mxGeometry x="290" y="530" width="40" height="20" as="geometry" />
        </mxCell>
        <mxCell id="XX8NJy2URvOhoocbzBcj-14" value="Wonders around" style="text;html=1;align=center;verticalAlign=middle;resizable=0;points=[];autosize=1;strokeColor=none;fillColor=none;" vertex="1" parent="WIyWlLk6GJQsqaUBKTNV-1">
          <mxGeometry x="620" y="540" width="100" height="20" as="geometry" />
        </mxCell>
        <mxCell id="XX8NJy2URvOhoocbzBcj-15" value="" style="edgeStyle=orthogonalEdgeStyle;rounded=0;html=1;jettySize=auto;orthogonalLoop=1;fontSize=11;endArrow=block;endFill=0;endSize=8;strokeWidth=1;shadow=0;labelBackgroundColor=none;exitX=0.5;exitY=1;exitDx=0;exitDy=0;" edge="1" parent="WIyWlLk6GJQsqaUBKTNV-1" source="XX8NJy2URvOhoocbzBcj-11">
          <mxGeometry x="1" y="142" relative="1" as="geometry">
            <mxPoint x="110" y="52" as="offset" />
            <mxPoint x="660" y="529" as="sourcePoint" />
            <mxPoint x="615" y="590" as="targetPoint" />
          </mxGeometry>
        </mxCell>
        <mxCell id="XX8NJy2URvOhoocbzBcj-16" value="Marceline is in a state of loneliness; sees a ship destroyed across" style="shape=parallelogram;perimeter=parallelogramPerimeter;whiteSpace=wrap;html=1;fixedSize=1;size=20;" vertex="1" parent="WIyWlLk6GJQsqaUBKTNV-1">
          <mxGeometry x="540" y="590" width="150" height="110" as="geometry" />
        </mxCell>
        <mxCell id="XX8NJy2URvOhoocbzBcj-17" value="Look around" style="text;html=1;align=center;verticalAlign=middle;resizable=0;points=[];autosize=1;strokeColor=none;fillColor=none;" vertex="1" parent="WIyWlLk6GJQsqaUBKTNV-1">
          <mxGeometry x="440" y="440" width="80" height="20" as="geometry" />
        </mxCell>
        <mxCell id="XX8NJy2URvOhoocbzBcj-18" value="" style="edgeStyle=orthogonalEdgeStyle;rounded=0;html=1;jettySize=auto;orthogonalLoop=1;fontSize=11;endArrow=block;endFill=0;endSize=8;strokeWidth=1;shadow=0;labelBackgroundColor=none;exitX=0.453;exitY=1.036;exitDx=0;exitDy=0;exitPerimeter=0;entryX=0.5;entryY=0;entryDx=0;entryDy=0;" edge="1" parent="WIyWlLk6GJQsqaUBKTNV-1" source="XX8NJy2URvOhoocbzBcj-16" target="XX8NJy2URvOhoocbzBcj-19">
          <mxGeometry x="1" y="142" relative="1" as="geometry">
            <mxPoint x="110" y="52" as="offset" />
            <mxPoint x="590" y="750" as="sourcePoint" />
            <mxPoint x="608" y="770" as="targetPoint" />
            <Array as="points">
              <mxPoint x="610" y="704" />
            </Array>
          </mxGeometry>
        </mxCell>
        <mxCell id="XX8NJy2URvOhoocbzBcj-19" value="If player decides to go to the travel&amp;nbsp;" style="rhombus;whiteSpace=wrap;html=1;" vertex="1" parent="WIyWlLk6GJQsqaUBKTNV-1">
          <mxGeometry x="560" y="760" width="110" height="110" as="geometry" />
        </mxCell>
        <mxCell id="XX8NJy2URvOhoocbzBcj-22" value="" style="edgeStyle=orthogonalEdgeStyle;rounded=0;html=1;jettySize=auto;orthogonalLoop=1;fontSize=11;endArrow=block;endFill=0;endSize=8;strokeWidth=1;shadow=0;labelBackgroundColor=none;exitX=0;exitY=0.5;exitDx=0;exitDy=0;entryX=0.5;entryY=1;entryDx=0;entryDy=0;" edge="1" parent="WIyWlLk6GJQsqaUBKTNV-1" source="XX8NJy2URvOhoocbzBcj-19" target="XX8NJy2URvOhoocbzBcj-5">
          <mxGeometry x="1" y="142" relative="1" as="geometry">
            <mxPoint x="110" y="52" as="offset" />
            <mxPoint x="470" y="814.5" as="sourcePoint" />
            <mxPoint x="440" y="815" as="targetPoint" />
            <Array as="points" />
          </mxGeometry>
        </mxCell>
        <mxCell id="XX8NJy2URvOhoocbzBcj-23" value="no" style="text;html=1;align=center;verticalAlign=middle;resizable=0;points=[];autosize=1;strokeColor=none;fillColor=none;" vertex="1" parent="WIyWlLk6GJQsqaUBKTNV-1">
          <mxGeometry x="480" y="790" width="30" height="20" as="geometry" />
        </mxCell>
        <mxCell id="XX8NJy2URvOhoocbzBcj-24" value="" style="edgeStyle=orthogonalEdgeStyle;rounded=0;html=1;jettySize=auto;orthogonalLoop=1;fontSize=11;endArrow=block;endFill=0;endSize=8;strokeWidth=1;shadow=0;labelBackgroundColor=none;exitX=0.5;exitY=1;exitDx=0;exitDy=0;" edge="1" parent="WIyWlLk6GJQsqaUBKTNV-1" source="XX8NJy2URvOhoocbzBcj-19">
          <mxGeometry x="1" y="142" relative="1" as="geometry">
            <mxPoint x="110" y="52" as="offset" />
            <mxPoint x="614.5" y="880" as="sourcePoint" />
            <mxPoint x="614.5" y="950" as="targetPoint" />
            <Array as="points">
              <mxPoint x="615" y="920" />
            </Array>
          </mxGeometry>
        </mxCell>
        <mxCell id="XX8NJy2URvOhoocbzBcj-25" value="yes" style="text;html=1;align=center;verticalAlign=middle;resizable=0;points=[];autosize=1;strokeColor=none;fillColor=none;" vertex="1" parent="WIyWlLk6GJQsqaUBKTNV-1">
          <mxGeometry x="620" y="890" width="30" height="20" as="geometry" />
        </mxCell>
        <mxCell id="tXJei0SalDdHZWZKaipg-1" value="Continue chapter 2" style="ellipse;whiteSpace=wrap;html=1;" vertex="1" parent="WIyWlLk6GJQsqaUBKTNV-1">
          <mxGeometry x="555" y="950" width="120" height="80" as="geometry" />
        </mxCell>
        <mxCell id="bPB4xbicR7i3ff10jRoa-0" value="End Game" style="rounded=1;whiteSpace=wrap;html=1;" vertex="1" parent="WIyWlLk6GJQsqaUBKTNV-1">
          <mxGeometry x="680" y="90" width="120" height="40" as="geometry" />
        </mxCell>
        <mxCell id="bPB4xbicR7i3ff10jRoa-1" value="Press F to quit" style="rhombus;whiteSpace=wrap;html=1;" vertex="1" parent="WIyWlLk6GJQsqaUBKTNV-1">
          <mxGeometry x="530" y="80" width="80" height="80" as="geometry" />
        </mxCell>
        <mxCell id="bPB4xbicR7i3ff10jRoa-3" value="" style="edgeStyle=orthogonalEdgeStyle;rounded=0;html=1;jettySize=auto;orthogonalLoop=1;fontSize=11;endArrow=block;endFill=0;endSize=8;strokeWidth=1;shadow=0;labelBackgroundColor=none;exitX=1;exitY=0.5;exitDx=0;exitDy=0;entryX=0;entryY=0.5;entryDx=0;entryDy=0;" edge="1" parent="WIyWlLk6GJQsqaUBKTNV-1" source="bPB4xbicR7i3ff10jRoa-1" target="bPB4xbicR7i3ff10jRoa-0">
          <mxGeometry x="1" y="142" relative="1" as="geometry">
            <mxPoint x="110" y="52" as="offset" />
            <mxPoint x="620" y="119.5" as="sourcePoint" />
            <mxPoint x="680" y="120" as="targetPoint" />
          </mxGeometry>
        </mxCell>
      </root>
    </mxGraphModel>
  </diagram>
  <diagram id="FKVQgBOfNRdxPhoE_cDy" name="Chapter 2 ">
    <mxGraphModel dx="1186" dy="562" grid="1" gridSize="10" guides="1" tooltips="1" connect="1" arrows="1" fold="1" page="1" pageScale="1" pageWidth="850" pageHeight="1100" math="0" shadow="0">
      <root>
        <mxCell id="MmmvFcsmGjbb41LGtCx1-0" />
        <mxCell id="MmmvFcsmGjbb41LGtCx1-1" parent="MmmvFcsmGjbb41LGtCx1-0" />
        <mxCell id="UE5tN1kWmdlJ-hlpyIiG-0" value="Chapter 2&amp;nbsp;" style="ellipse;whiteSpace=wrap;html=1;" vertex="1" parent="MmmvFcsmGjbb41LGtCx1-1">
          <mxGeometry x="365" y="30" width="120" height="80" as="geometry" />
        </mxCell>
        <mxCell id="UE5tN1kWmdlJ-hlpyIiG-1" value="" style="edgeStyle=elbowEdgeStyle;elbow=horizontal;endArrow=classic;html=1;rounded=0;exitX=0.5;exitY=1;exitDx=0;exitDy=0;" edge="1" parent="MmmvFcsmGjbb41LGtCx1-1" source="UE5tN1kWmdlJ-hlpyIiG-0">
          <mxGeometry width="50" height="50" relative="1" as="geometry">
            <mxPoint x="480" y="260" as="sourcePoint" />
            <mxPoint x="425" y="230" as="targetPoint" />
          </mxGeometry>
        </mxCell>
        <mxCell id="UE5tN1kWmdlJ-hlpyIiG-2" value="Player choose action" style="rhombus;whiteSpace=wrap;html=1;" vertex="1" parent="MmmvFcsmGjbb41LGtCx1-1">
          <mxGeometry x="369" y="230" width="112" height="110" as="geometry" />
        </mxCell>
        <mxCell id="UE5tN1kWmdlJ-hlpyIiG-3" value="" style="edgeStyle=elbowEdgeStyle;elbow=horizontal;endArrow=classic;html=1;rounded=0;exitX=1;exitY=0.5;exitDx=0;exitDy=0;" edge="1" parent="MmmvFcsmGjbb41LGtCx1-1" source="UE5tN1kWmdlJ-hlpyIiG-2" target="F9AjVqk7vaCjsPv-KBoj-6">
          <mxGeometry width="50" height="50" relative="1" as="geometry">
            <mxPoint x="560" y="280" as="sourcePoint" />
            <mxPoint x="600" y="285" as="targetPoint" />
          </mxGeometry>
        </mxCell>
        <mxCell id="hk8KBOFNUIBqAeiLLJiK-0" value="" style="edgeStyle=elbowEdgeStyle;elbow=horizontal;endArrow=classic;html=1;rounded=0;exitX=0;exitY=0.5;exitDx=0;exitDy=0;" edge="1" parent="MmmvFcsmGjbb41LGtCx1-1" source="UE5tN1kWmdlJ-hlpyIiG-2">
          <mxGeometry width="50" height="50" relative="1" as="geometry">
            <mxPoint x="260" y="340" as="sourcePoint" />
            <mxPoint x="220" y="285" as="targetPoint" />
          </mxGeometry>
        </mxCell>
        <mxCell id="Sg5ruB6Scv-fOY48Km1d-0" value="Stay Module" style="rhombus;whiteSpace=wrap;html=1;" vertex="1" parent="MmmvFcsmGjbb41LGtCx1-1">
          <mxGeometry x="100" y="235" width="100" height="100" as="geometry" />
        </mxCell>
        <mxCell id="Sg5ruB6Scv-fOY48Km1d-1" value="rest" style="text;html=1;align=center;verticalAlign=middle;resizable=0;points=[];autosize=1;strokeColor=none;fillColor=none;" vertex="1" parent="MmmvFcsmGjbb41LGtCx1-1">
          <mxGeometry x="260" y="260" width="40" height="20" as="geometry" />
        </mxCell>
        <mxCell id="Sg5ruB6Scv-fOY48Km1d-2" value="" style="edgeStyle=elbowEdgeStyle;elbow=horizontal;endArrow=classic;html=1;rounded=0;exitX=0;exitY=1;exitDx=0;exitDy=0;entryX=0.5;entryY=1;entryDx=0;entryDy=0;" edge="1" parent="MmmvFcsmGjbb41LGtCx1-1" source="UE5tN1kWmdlJ-hlpyIiG-2" target="Sg5ruB6Scv-fOY48Km1d-0">
          <mxGeometry width="50" height="50" relative="1" as="geometry">
            <mxPoint x="379" y="320" as="sourcePoint" />
            <mxPoint x="230" y="380" as="targetPoint" />
            <Array as="points">
              <mxPoint x="270" y="340" />
            </Array>
          </mxGeometry>
        </mxCell>
        <mxCell id="Sg5ruB6Scv-fOY48Km1d-3" value="Check Cockpit" style="text;html=1;align=center;verticalAlign=middle;resizable=0;points=[];autosize=1;strokeColor=none;fillColor=none;" vertex="1" parent="MmmvFcsmGjbb41LGtCx1-1">
          <mxGeometry x="180" y="315" width="90" height="20" as="geometry" />
        </mxCell>
        <mxCell id="Sg5ruB6Scv-fOY48Km1d-4" value="" style="edgeStyle=elbowEdgeStyle;elbow=horizontal;endArrow=classic;html=1;rounded=0;exitX=0.5;exitY=1;exitDx=0;exitDy=0;entryX=0;entryY=0.5;entryDx=0;entryDy=0;" edge="1" parent="MmmvFcsmGjbb41LGtCx1-1" source="UE5tN1kWmdlJ-hlpyIiG-2" target="Sg5ruB6Scv-fOY48Km1d-0">
          <mxGeometry width="50" height="50" relative="1" as="geometry">
            <mxPoint x="389" y="380" as="sourcePoint" />
            <mxPoint x="240" y="380" as="targetPoint" />
            <Array as="points">
              <mxPoint x="320" y="370" />
            </Array>
          </mxGeometry>
        </mxCell>
        <mxCell id="F9AjVqk7vaCjsPv-KBoj-0" value="" style="edgeStyle=elbowEdgeStyle;elbow=horizontal;endArrow=classic;html=1;rounded=0;exitX=0.5;exitY=0;exitDx=0;exitDy=0;entryX=0;entryY=0;entryDx=0;entryDy=0;" edge="1" parent="MmmvFcsmGjbb41LGtCx1-1" source="Sg5ruB6Scv-fOY48Km1d-0" target="UE5tN1kWmdlJ-hlpyIiG-2">
          <mxGeometry width="50" height="50" relative="1" as="geometry">
            <mxPoint x="235.5" y="250" as="sourcePoint" />
            <mxPoint x="324.5" y="250" as="targetPoint" />
            <Array as="points">
              <mxPoint x="300" y="230" />
            </Array>
          </mxGeometry>
        </mxCell>
        <mxCell id="F9AjVqk7vaCjsPv-KBoj-1" value="Return" style="text;html=1;align=center;verticalAlign=middle;resizable=0;points=[];autosize=1;strokeColor=none;fillColor=none;" vertex="1" parent="MmmvFcsmGjbb41LGtCx1-1">
          <mxGeometry x="225" y="220" width="50" height="20" as="geometry" />
        </mxCell>
        <mxCell id="F9AjVqk7vaCjsPv-KBoj-2" value="" style="edgeStyle=elbowEdgeStyle;elbow=horizontal;endArrow=classic;html=1;rounded=0;exitX=1;exitY=1;exitDx=0;exitDy=0;" edge="1" parent="MmmvFcsmGjbb41LGtCx1-1" source="UE5tN1kWmdlJ-hlpyIiG-2" target="F9AjVqk7vaCjsPv-KBoj-3">
          <mxGeometry width="50" height="50" relative="1" as="geometry">
            <mxPoint x="491" y="360" as="sourcePoint" />
            <mxPoint x="450" y="480" as="targetPoint" />
            <Array as="points">
              <mxPoint x="453" y="430" />
            </Array>
          </mxGeometry>
        </mxCell>
        <mxCell id="F9AjVqk7vaCjsPv-KBoj-3" value="Skip to Chapter 5" style="ellipse;whiteSpace=wrap;html=1;" vertex="1" parent="MmmvFcsmGjbb41LGtCx1-1">
          <mxGeometry x="390" y="460" width="120" height="80" as="geometry" />
        </mxCell>
        <mxCell id="F9AjVqk7vaCjsPv-KBoj-4" value="Check radio" style="text;html=1;align=center;verticalAlign=middle;resizable=0;points=[];autosize=1;strokeColor=none;fillColor=none;" vertex="1" parent="MmmvFcsmGjbb41LGtCx1-1">
          <mxGeometry x="450" y="360" width="80" height="20" as="geometry" />
        </mxCell>
        <mxCell id="F9AjVqk7vaCjsPv-KBoj-5" value="Check storage room" style="text;html=1;align=center;verticalAlign=middle;resizable=0;points=[];autosize=1;strokeColor=none;fillColor=none;" vertex="1" parent="MmmvFcsmGjbb41LGtCx1-1">
          <mxGeometry x="470" y="260" width="120" height="20" as="geometry" />
        </mxCell>
        <mxCell id="F9AjVqk7vaCjsPv-KBoj-6" value="Storage room Module" style="rhombus;whiteSpace=wrap;html=1;" vertex="1" parent="MmmvFcsmGjbb41LGtCx1-1">
          <mxGeometry x="630" y="230" width="120" height="105" as="geometry" />
        </mxCell>
        <mxCell id="F9AjVqk7vaCjsPv-KBoj-7" value="Chapter 3&amp;nbsp;" style="ellipse;whiteSpace=wrap;html=1;" vertex="1" parent="MmmvFcsmGjbb41LGtCx1-1">
          <mxGeometry x="630" y="420" width="120" height="80" as="geometry" />
        </mxCell>
        <mxCell id="F9AjVqk7vaCjsPv-KBoj-8" value="" style="edgeStyle=elbowEdgeStyle;elbow=horizontal;endArrow=classic;html=1;rounded=0;exitX=0.5;exitY=1;exitDx=0;exitDy=0;entryX=0.5;entryY=0;entryDx=0;entryDy=0;" edge="1" parent="MmmvFcsmGjbb41LGtCx1-1" source="F9AjVqk7vaCjsPv-KBoj-6" target="F9AjVqk7vaCjsPv-KBoj-7">
          <mxGeometry width="50" height="50" relative="1" as="geometry">
            <mxPoint x="690" y="340" as="sourcePoint" />
            <mxPoint x="690" y="410" as="targetPoint" />
          </mxGeometry>
        </mxCell>
      </root>
    </mxGraphModel>
  </diagram>
  <diagram id="thDQIDWPvLO8MC7os8H4" name="Chapter 3 ">
    <mxGraphModel dx="1186" dy="562" grid="1" gridSize="10" guides="1" tooltips="1" connect="1" arrows="1" fold="1" page="1" pageScale="1" pageWidth="850" pageHeight="1100" math="0" shadow="0">
      <root>
        <mxCell id="_rbpeS2jO8Aam1Z_doMl-0" />
        <mxCell id="_rbpeS2jO8Aam1Z_doMl-1" parent="_rbpeS2jO8Aam1Z_doMl-0" />
        <mxCell id="3r6ja2E3sw6yp7jiM0I1-0" value="Chapter 3&amp;nbsp;" style="ellipse;whiteSpace=wrap;html=1;" vertex="1" parent="_rbpeS2jO8Aam1Z_doMl-1">
          <mxGeometry x="340" y="30" width="120" height="80" as="geometry" />
        </mxCell>
        <mxCell id="3r6ja2E3sw6yp7jiM0I1-1" value="Find herself with plenty of oxygen&amp;nbsp;&lt;br&gt;tanks, and resources" style="shape=parallelogram;perimeter=parallelogramPerimeter;whiteSpace=wrap;html=1;fixedSize=1;" vertex="1" parent="_rbpeS2jO8Aam1Z_doMl-1">
          <mxGeometry x="292.5" y="200" width="215" height="90" as="geometry" />
        </mxCell>
        <mxCell id="3r6ja2E3sw6yp7jiM0I1-2" value="" style="edgeStyle=elbowEdgeStyle;elbow=vertical;endArrow=classic;html=1;rounded=0;exitX=0.5;exitY=1;exitDx=0;exitDy=0;entryX=0.5;entryY=0;entryDx=0;entryDy=0;" edge="1" parent="_rbpeS2jO8Aam1Z_doMl-1" source="3r6ja2E3sw6yp7jiM0I1-0" target="3r6ja2E3sw6yp7jiM0I1-1">
          <mxGeometry width="50" height="50" relative="1" as="geometry">
            <mxPoint x="400" y="290" as="sourcePoint" />
            <mxPoint x="450" y="240" as="targetPoint" />
          </mxGeometry>
        </mxCell>
        <mxCell id="3r6ja2E3sw6yp7jiM0I1-3" value="Searching Module&amp;nbsp;" style="rhombus;whiteSpace=wrap;html=1;" vertex="1" parent="_rbpeS2jO8Aam1Z_doMl-1">
          <mxGeometry x="330" y="390" width="140" height="120" as="geometry" />
        </mxCell>
        <mxCell id="3r6ja2E3sw6yp7jiM0I1-4" value="Takes resources to&lt;br&gt;Marcelines ship" style="shape=trapezoid;perimeter=trapezoidPerimeter;whiteSpace=wrap;html=1;fixedSize=1;" vertex="1" parent="_rbpeS2jO8Aam1Z_doMl-1">
          <mxGeometry x="30" y="215" width="120" height="60" as="geometry" />
        </mxCell>
        <mxCell id="KR9Cg-L5_Ba7K1JqvtmA-0" value="" style="edgeStyle=elbowEdgeStyle;elbow=vertical;endArrow=classic;html=1;rounded=0;exitX=0;exitY=0.5;exitDx=0;exitDy=0;entryX=1;entryY=0.5;entryDx=0;entryDy=0;" edge="1" parent="_rbpeS2jO8Aam1Z_doMl-1" source="3r6ja2E3sw6yp7jiM0I1-1" target="3r6ja2E3sw6yp7jiM0I1-4">
          <mxGeometry width="50" height="50" relative="1" as="geometry">
            <mxPoint x="240" y="240" as="sourcePoint" />
            <mxPoint x="180" y="245" as="targetPoint" />
          </mxGeometry>
        </mxCell>
        <mxCell id="J9ylBnD-lkEVdegQe2lA-0" value="" style="edgeStyle=elbowEdgeStyle;elbow=vertical;endArrow=classic;html=1;rounded=0;exitX=0.5;exitY=0;exitDx=0;exitDy=0;" edge="1" parent="_rbpeS2jO8Aam1Z_doMl-1" source="3r6ja2E3sw6yp7jiM0I1-4">
          <mxGeometry width="50" height="50" relative="1" as="geometry">
            <mxPoint x="142.5" y="150" as="sourcePoint" />
            <mxPoint x="90" y="130" as="targetPoint" />
          </mxGeometry>
        </mxCell>
        <mxCell id="J9ylBnD-lkEVdegQe2lA-1" value="Loops back to chapter 2&amp;nbsp;" style="ellipse;whiteSpace=wrap;html=1;" vertex="1" parent="_rbpeS2jO8Aam1Z_doMl-1">
          <mxGeometry x="40" y="40" width="120" height="80" as="geometry" />
        </mxCell>
        <mxCell id="WqPbWSVQt8Yujw_1oh0E-0" value="" style="edgeStyle=elbowEdgeStyle;elbow=vertical;endArrow=classic;html=1;rounded=0;exitX=1;exitY=0.5;exitDx=0;exitDy=0;" edge="1" parent="_rbpeS2jO8Aam1Z_doMl-1" source="3r6ja2E3sw6yp7jiM0I1-1">
          <mxGeometry width="50" height="50" relative="1" as="geometry">
            <mxPoint x="570" y="240" as="sourcePoint" />
            <mxPoint x="590" y="250" as="targetPoint" />
          </mxGeometry>
        </mxCell>
        <mxCell id="7uFEb8W_2Fd1TI5TsXd--0" value="Rest" style="shape=trapezoid;perimeter=trapezoidPerimeter;whiteSpace=wrap;html=1;fixedSize=1;" vertex="1" parent="_rbpeS2jO8Aam1Z_doMl-1">
          <mxGeometry x="610" y="210" width="120" height="60" as="geometry" />
        </mxCell>
        <mxCell id="7uFEb8W_2Fd1TI5TsXd--1" value="" style="edgeStyle=elbowEdgeStyle;elbow=vertical;endArrow=classic;html=1;rounded=0;exitX=0.5;exitY=1;exitDx=0;exitDy=0;entryX=0.5;entryY=0;entryDx=0;entryDy=0;" edge="1" parent="_rbpeS2jO8Aam1Z_doMl-1">
          <mxGeometry width="50" height="50" relative="1" as="geometry">
            <mxPoint x="399.5" y="290" as="sourcePoint" />
            <mxPoint x="399.5" y="380" as="targetPoint" />
          </mxGeometry>
        </mxCell>
        <mxCell id="WpeP70OGJ4ZsJMVZCfqR-0" value="Chapter 4" style="ellipse;whiteSpace=wrap;html=1;" vertex="1" parent="_rbpeS2jO8Aam1Z_doMl-1">
          <mxGeometry x="340" y="610" width="120" height="80" as="geometry" />
        </mxCell>
        <mxCell id="WpeP70OGJ4ZsJMVZCfqR-1" value="" style="edgeStyle=elbowEdgeStyle;elbow=vertical;endArrow=classic;html=1;rounded=0;exitX=0.5;exitY=1;exitDx=0;exitDy=0;entryX=0.5;entryY=0;entryDx=0;entryDy=0;" edge="1" parent="_rbpeS2jO8Aam1Z_doMl-1">
          <mxGeometry width="50" height="50" relative="1" as="geometry">
            <mxPoint x="399.5" y="510" as="sourcePoint" />
            <mxPoint x="399.5" y="600" as="targetPoint" />
          </mxGeometry>
        </mxCell>
        <mxCell id="WpeP70OGJ4ZsJMVZCfqR-2" value="" style="edgeStyle=elbowEdgeStyle;elbow=vertical;endArrow=classic;html=1;rounded=0;exitX=0;exitY=0.5;exitDx=0;exitDy=0;entryX=0;entryY=0.5;entryDx=0;entryDy=0;" edge="1" parent="_rbpeS2jO8Aam1Z_doMl-1" source="3r6ja2E3sw6yp7jiM0I1-3" target="3r6ja2E3sw6yp7jiM0I1-0">
          <mxGeometry width="50" height="50" relative="1" as="geometry">
            <mxPoint x="292.5" y="440" as="sourcePoint" />
            <mxPoint x="190" y="70" as="targetPoint" />
            <Array as="points">
              <mxPoint x="220" y="450" />
            </Array>
          </mxGeometry>
        </mxCell>
        <mxCell id="WpeP70OGJ4ZsJMVZCfqR-3" value="no" style="text;html=1;align=center;verticalAlign=middle;resizable=0;points=[];autosize=1;strokeColor=none;fillColor=none;" vertex="1" parent="_rbpeS2jO8Aam1Z_doMl-1">
          <mxGeometry x="215" y="330" width="30" height="20" as="geometry" />
        </mxCell>
        <mxCell id="WpeP70OGJ4ZsJMVZCfqR-4" value="yes" style="text;html=1;align=center;verticalAlign=middle;resizable=0;points=[];autosize=1;strokeColor=none;fillColor=none;" vertex="1" parent="_rbpeS2jO8Aam1Z_doMl-1">
          <mxGeometry x="395" y="550" width="30" height="20" as="geometry" />
        </mxCell>
        <mxCell id="A7CBPAxmyHl1fd9ITXFL-0" value="" style="edgeStyle=elbowEdgeStyle;elbow=vertical;endArrow=classic;html=1;rounded=0;entryX=1;entryY=0.5;entryDx=0;entryDy=0;" edge="1" parent="_rbpeS2jO8Aam1Z_doMl-1" target="3r6ja2E3sw6yp7jiM0I1-0">
          <mxGeometry width="50" height="50" relative="1" as="geometry">
            <mxPoint x="670" y="200" as="sourcePoint" />
            <mxPoint x="600" y="240" as="targetPoint" />
            <Array as="points">
              <mxPoint x="640" y="80" />
            </Array>
          </mxGeometry>
        </mxCell>
        <mxCell id="A7CBPAxmyHl1fd9ITXFL-1" value="loops&amp;nbsp;" style="text;html=1;align=center;verticalAlign=middle;resizable=0;points=[];autosize=1;strokeColor=none;fillColor=none;" vertex="1" parent="_rbpeS2jO8Aam1Z_doMl-1">
          <mxGeometry x="615" y="140" width="50" height="20" as="geometry" />
        </mxCell>
      </root>
    </mxGraphModel>
  </diagram>
  <diagram id="pKzbgrLo31YIlBOBD17w" name="Chapter 4">
    <mxGraphModel dx="1186" dy="562" grid="1" gridSize="10" guides="1" tooltips="1" connect="1" arrows="1" fold="1" page="1" pageScale="1" pageWidth="850" pageHeight="1100" math="0" shadow="0">
      <root>
        <mxCell id="DjvqaQE8jhXVLhOTrT6k-0" />
        <mxCell id="DjvqaQE8jhXVLhOTrT6k-1" parent="DjvqaQE8jhXVLhOTrT6k-0" />
        <mxCell id="DjvqaQE8jhXVLhOTrT6k-2" value="Chapter 4" style="ellipse;whiteSpace=wrap;html=1;" vertex="1" parent="DjvqaQE8jhXVLhOTrT6k-1">
          <mxGeometry x="360" y="20" width="120" height="80" as="geometry" />
        </mxCell>
        <mxCell id="30JrBEiRa7M87XOM5dfq-0" value="Marceline finds&lt;br&gt;herself with plenty of resources and hears something static" style="shape=parallelogram;perimeter=parallelogramPerimeter;whiteSpace=wrap;html=1;fixedSize=1;" vertex="1" parent="DjvqaQE8jhXVLhOTrT6k-1">
          <mxGeometry x="345" y="170" width="150" height="100" as="geometry" />
        </mxCell>
        <mxCell id="30JrBEiRa7M87XOM5dfq-2" value="" style="endArrow=classic;html=1;rounded=0;edgeStyle=orthogonalEdgeStyle;exitX=0.5;exitY=1;exitDx=0;exitDy=0;entryX=0.5;entryY=0;entryDx=0;entryDy=0;" edge="1" parent="DjvqaQE8jhXVLhOTrT6k-1" source="DjvqaQE8jhXVLhOTrT6k-2" target="30JrBEiRa7M87XOM5dfq-0">
          <mxGeometry width="50" height="50" relative="1" as="geometry">
            <mxPoint x="400" y="190" as="sourcePoint" />
            <mxPoint x="450" y="140" as="targetPoint" />
          </mxGeometry>
        </mxCell>
        <mxCell id="CLPdmMkTehQuYOz6hwIw-0" value="Takes the rest of&amp;nbsp;&lt;br&gt;oxygen tanks to Marceline ship" style="rhombus;whiteSpace=wrap;html=1;" vertex="1" parent="DjvqaQE8jhXVLhOTrT6k-1">
          <mxGeometry x="90" y="165" width="120" height="110" as="geometry" />
        </mxCell>
        <mxCell id="CLPdmMkTehQuYOz6hwIw-1" value="Heads back to her ship" style="rhombus;whiteSpace=wrap;html=1;" vertex="1" parent="DjvqaQE8jhXVLhOTrT6k-1">
          <mxGeometry x="620" y="165" width="120" height="110" as="geometry" />
        </mxCell>
        <mxCell id="CLPdmMkTehQuYOz6hwIw-2" value="Chapter 3&amp;nbsp;" style="ellipse;whiteSpace=wrap;html=1;" vertex="1" parent="DjvqaQE8jhXVLhOTrT6k-1">
          <mxGeometry x="190" y="420" width="120" height="80" as="geometry" />
        </mxCell>
        <mxCell id="CLPdmMkTehQuYOz6hwIw-3" value="" style="endArrow=classic;html=1;rounded=0;edgeStyle=orthogonalEdgeStyle;exitX=0;exitY=0.5;exitDx=0;exitDy=0;entryX=1;entryY=0.5;entryDx=0;entryDy=0;" edge="1" parent="DjvqaQE8jhXVLhOTrT6k-1" source="30JrBEiRa7M87XOM5dfq-0" target="CLPdmMkTehQuYOz6hwIw-0">
          <mxGeometry width="50" height="50" relative="1" as="geometry">
            <mxPoint x="280" y="220" as="sourcePoint" />
            <mxPoint x="280" y="290" as="targetPoint" />
            <Array as="points">
              <mxPoint x="280" y="220" />
              <mxPoint x="280" y="215" />
            </Array>
          </mxGeometry>
        </mxCell>
        <mxCell id="CLPdmMkTehQuYOz6hwIw-4" value="" style="endArrow=classic;html=1;rounded=0;edgeStyle=orthogonalEdgeStyle;" edge="1" parent="DjvqaQE8jhXVLhOTrT6k-1" source="30JrBEiRa7M87XOM5dfq-0" target="CLPdmMkTehQuYOz6hwIw-1">
          <mxGeometry width="50" height="50" relative="1" as="geometry">
            <mxPoint x="560" y="220" as="sourcePoint" />
            <mxPoint x="560" y="290" as="targetPoint" />
          </mxGeometry>
        </mxCell>
        <mxCell id="A9NUacuUkkweGv0EC_r--0" value="" style="endArrow=classic;html=1;rounded=0;edgeStyle=orthogonalEdgeStyle;exitX=0.5;exitY=1;exitDx=0;exitDy=0;entryX=0;entryY=0;entryDx=0;entryDy=0;" edge="1" parent="DjvqaQE8jhXVLhOTrT6k-1" source="CLPdmMkTehQuYOz6hwIw-0" target="CLPdmMkTehQuYOz6hwIw-2">
          <mxGeometry width="50" height="50" relative="1" as="geometry">
            <mxPoint x="160" y="290" as="sourcePoint" />
            <mxPoint x="160" y="360" as="targetPoint" />
          </mxGeometry>
        </mxCell>
        <mxCell id="A9NUacuUkkweGv0EC_r--1" value="" style="endArrow=classic;html=1;rounded=0;edgeStyle=orthogonalEdgeStyle;exitX=0.5;exitY=1;exitDx=0;exitDy=0;entryX=0.5;entryY=1;entryDx=0;entryDy=0;" edge="1" parent="DjvqaQE8jhXVLhOTrT6k-1" source="CLPdmMkTehQuYOz6hwIw-1" target="CLPdmMkTehQuYOz6hwIw-2">
          <mxGeometry width="50" height="50" relative="1" as="geometry">
            <mxPoint x="640" y="400" as="sourcePoint" />
            <mxPoint x="640" y="470" as="targetPoint" />
            <Array as="points">
              <mxPoint x="680" y="560" />
              <mxPoint x="250" y="560" />
            </Array>
          </mxGeometry>
        </mxCell>
        <mxCell id="A9NUacuUkkweGv0EC_r--2" value="" style="endArrow=classic;html=1;rounded=0;edgeStyle=orthogonalEdgeStyle;exitX=0.5;exitY=1;exitDx=0;exitDy=0;entryX=0.5;entryY=0;entryDx=0;entryDy=0;" edge="1" parent="DjvqaQE8jhXVLhOTrT6k-1" source="30JrBEiRa7M87XOM5dfq-0">
          <mxGeometry width="50" height="50" relative="1" as="geometry">
            <mxPoint x="419.5" y="310" as="sourcePoint" />
            <mxPoint x="419.5" y="380" as="targetPoint" />
            <Array as="points">
              <mxPoint x="420" y="330" />
            </Array>
          </mxGeometry>
        </mxCell>
        <mxCell id="A9NUacuUkkweGv0EC_r--3" value="Chapter 5" style="ellipse;whiteSpace=wrap;html=1;" vertex="1" parent="DjvqaQE8jhXVLhOTrT6k-1">
          <mxGeometry x="530" y="320" width="120" height="80" as="geometry" />
        </mxCell>
        <mxCell id="A9NUacuUkkweGv0EC_r--4" value="Head towards the noise&amp;nbsp;" style="rhombus;whiteSpace=wrap;html=1;" vertex="1" parent="DjvqaQE8jhXVLhOTrT6k-1">
          <mxGeometry x="375" y="390" width="100" height="90" as="geometry" />
        </mxCell>
        <mxCell id="A9NUacuUkkweGv0EC_r--6" value="" style="endArrow=classic;html=1;rounded=0;edgeStyle=orthogonalEdgeStyle;exitX=1;exitY=0.5;exitDx=0;exitDy=0;entryX=0.5;entryY=1;entryDx=0;entryDy=0;" edge="1" parent="DjvqaQE8jhXVLhOTrT6k-1" source="A9NUacuUkkweGv0EC_r--4" target="A9NUacuUkkweGv0EC_r--3">
          <mxGeometry width="50" height="50" relative="1" as="geometry">
            <mxPoint x="560" y="410" as="sourcePoint" />
            <mxPoint x="610" y="360" as="targetPoint" />
          </mxGeometry>
        </mxCell>
      </root>
    </mxGraphModel>
  </diagram>
  <diagram id="wbrNYCzqaXrN7zNEJN4d" name="Chapter 5 ">
    <mxGraphModel dx="1186" dy="562" grid="1" gridSize="10" guides="1" tooltips="1" connect="1" arrows="1" fold="1" page="1" pageScale="1" pageWidth="850" pageHeight="1100" math="0" shadow="0">
      <root>
        <mxCell id="UyIMwZcbD3BWaMj1Z1oZ-0" />
        <mxCell id="UyIMwZcbD3BWaMj1Z1oZ-1" parent="UyIMwZcbD3BWaMj1Z1oZ-0" />
        <mxCell id="UyIMwZcbD3BWaMj1Z1oZ-2" value="Chapter 5" style="ellipse;whiteSpace=wrap;html=1;" vertex="1" parent="UyIMwZcbD3BWaMj1Z1oZ-1">
          <mxGeometry x="350" y="10" width="120" height="80" as="geometry" />
        </mxCell>
        <mxCell id="UyIMwZcbD3BWaMj1Z1oZ-3" value="" style="endArrow=classic;html=1;rounded=0;edgeStyle=orthogonalEdgeStyle;exitX=0.5;exitY=1;exitDx=0;exitDy=0;" edge="1" parent="UyIMwZcbD3BWaMj1Z1oZ-1" source="UyIMwZcbD3BWaMj1Z1oZ-2">
          <mxGeometry width="50" height="50" relative="1" as="geometry">
            <mxPoint x="400" y="110" as="sourcePoint" />
            <mxPoint x="410" y="190" as="targetPoint" />
          </mxGeometry>
        </mxCell>
        <mxCell id="UyIMwZcbD3BWaMj1Z1oZ-4" value="As Marceline heads towards the sound&lt;br&gt;a static noise in the radio is saying &quot;anybody there" style="rhombus;whiteSpace=wrap;html=1;" vertex="1" parent="UyIMwZcbD3BWaMj1Z1oZ-1">
          <mxGeometry x="315" y="200" width="190" height="160" as="geometry" />
        </mxCell>
        <mxCell id="af-PzS1UNERkoptoo0Uk-0" value="Player chooses action" style="rhombus;whiteSpace=wrap;html=1;" vertex="1" parent="UyIMwZcbD3BWaMj1Z1oZ-1">
          <mxGeometry x="360" y="430" width="100" height="100" as="geometry" />
        </mxCell>
        <mxCell id="af-PzS1UNERkoptoo0Uk-1" value="" style="endArrow=classic;html=1;rounded=0;edgeStyle=orthogonalEdgeStyle;exitX=0.5;exitY=1;exitDx=0;exitDy=0;" edge="1" parent="UyIMwZcbD3BWaMj1Z1oZ-1" source="UyIMwZcbD3BWaMj1Z1oZ-4" target="af-PzS1UNERkoptoo0Uk-0">
          <mxGeometry width="50" height="50" relative="1" as="geometry">
            <mxPoint x="490" y="440" as="sourcePoint" />
            <mxPoint x="540" y="390" as="targetPoint" />
          </mxGeometry>
        </mxCell>
        <mxCell id="af-PzS1UNERkoptoo0Uk-2" value="" style="endArrow=classic;html=1;rounded=0;edgeStyle=orthogonalEdgeStyle;exitX=1;exitY=0.5;exitDx=0;exitDy=0;" edge="1" parent="UyIMwZcbD3BWaMj1Z1oZ-1" source="af-PzS1UNERkoptoo0Uk-0">
          <mxGeometry width="50" height="50" relative="1" as="geometry">
            <mxPoint x="490" y="480" as="sourcePoint" />
            <mxPoint x="570" y="480" as="targetPoint" />
          </mxGeometry>
        </mxCell>
        <mxCell id="af-PzS1UNERkoptoo0Uk-3" value="" style="endArrow=classic;html=1;rounded=0;edgeStyle=orthogonalEdgeStyle;exitX=0;exitY=0.5;exitDx=0;exitDy=0;entryX=1;entryY=0.5;entryDx=0;entryDy=0;" edge="1" parent="UyIMwZcbD3BWaMj1Z1oZ-1" source="af-PzS1UNERkoptoo0Uk-0" target="tZW2KvB4p1BvKrogLcUO-0">
          <mxGeometry width="50" height="50" relative="1" as="geometry">
            <mxPoint x="280" y="575" as="sourcePoint" />
            <mxPoint x="270" y="480" as="targetPoint" />
          </mxGeometry>
        </mxCell>
        <mxCell id="tZW2KvB4p1BvKrogLcUO-0" value="Chapter 3" style="ellipse;whiteSpace=wrap;html=1;" vertex="1" parent="UyIMwZcbD3BWaMj1Z1oZ-1">
          <mxGeometry x="120" y="420" width="120" height="100" as="geometry" />
        </mxCell>
        <mxCell id="wk90VcQ0fgQEmhOFUWzd-0" value="Runs off&amp;nbsp;" style="text;html=1;align=center;verticalAlign=middle;resizable=0;points=[];autosize=1;strokeColor=none;fillColor=none;" vertex="1" parent="UyIMwZcbD3BWaMj1Z1oZ-1">
          <mxGeometry x="270" y="440" width="60" height="20" as="geometry" />
        </mxCell>
        <mxCell id="OaB2oDgNTjsBXFffbE04-1" value="Takes the rest oxygen tanks to Marceline’s ship" style="text;html=1;align=center;verticalAlign=middle;resizable=0;points=[];autosize=1;strokeColor=none;fillColor=none;" vertex="1" parent="UyIMwZcbD3BWaMj1Z1oZ-1">
          <mxGeometry x="170" y="590" width="270" height="20" as="geometry" />
        </mxCell>
        <mxCell id="OaB2oDgNTjsBXFffbE04-2" value="" style="endArrow=none;html=1;rounded=0;edgeStyle=orthogonalEdgeStyle;exitX=0;exitY=1;exitDx=0;exitDy=0;entryX=0.5;entryY=1;entryDx=0;entryDy=0;" edge="1" parent="UyIMwZcbD3BWaMj1Z1oZ-1" source="af-PzS1UNERkoptoo0Uk-0" target="tZW2KvB4p1BvKrogLcUO-0">
          <mxGeometry width="50" height="50" relative="1" as="geometry">
            <mxPoint x="385" y="505" as="sourcePoint" />
            <mxPoint x="180" y="520" as="targetPoint" />
            <Array as="points">
              <mxPoint x="385" y="580" />
              <mxPoint x="180" y="580" />
            </Array>
          </mxGeometry>
        </mxCell>
        <mxCell id="OaB2oDgNTjsBXFffbE04-3" value="Action" style="rhombus;whiteSpace=wrap;html=1;" vertex="1" parent="UyIMwZcbD3BWaMj1Z1oZ-1">
          <mxGeometry x="590" y="440" width="80" height="80" as="geometry" />
        </mxCell>
        <mxCell id="OaB2oDgNTjsBXFffbE04-4" value="Answer" style="text;html=1;align=center;verticalAlign=middle;resizable=0;points=[];autosize=1;strokeColor=none;fillColor=none;" vertex="1" parent="UyIMwZcbD3BWaMj1Z1oZ-1">
          <mxGeometry x="490" y="460" width="60" height="20" as="geometry" />
        </mxCell>
        <mxCell id="42w7u-ZnjlbJUN202JNE-0" value="" style="endArrow=classic;html=1;rounded=0;edgeStyle=orthogonalEdgeStyle;exitX=0.5;exitY=1;exitDx=0;exitDy=0;" edge="1" parent="UyIMwZcbD3BWaMj1Z1oZ-1" source="OaB2oDgNTjsBXFffbE04-3">
          <mxGeometry width="50" height="50" relative="1" as="geometry">
            <mxPoint x="629.5" y="530" as="sourcePoint" />
            <mxPoint x="629.5" y="600" as="targetPoint" />
          </mxGeometry>
        </mxCell>
        <mxCell id="42w7u-ZnjlbJUN202JNE-1" value="Track the signal and follow and take oxygen tanks" style="rounded=1;whiteSpace=wrap;html=1;" vertex="1" parent="UyIMwZcbD3BWaMj1Z1oZ-1">
          <mxGeometry x="570" y="600" width="120" height="60" as="geometry" />
        </mxCell>
        <mxCell id="espHETIfQQOKt_66LIvg-0" value="" style="endArrow=classic;html=1;rounded=0;edgeStyle=orthogonalEdgeStyle;exitX=0.5;exitY=1;exitDx=0;exitDy=0;" edge="1" parent="UyIMwZcbD3BWaMj1Z1oZ-1" source="42w7u-ZnjlbJUN202JNE-1">
          <mxGeometry width="50" height="50" relative="1" as="geometry">
            <mxPoint x="660" y="780" as="sourcePoint" />
            <mxPoint x="630" y="740" as="targetPoint" />
          </mxGeometry>
        </mxCell>
        <mxCell id="espHETIfQQOKt_66LIvg-1" value="End game&amp;nbsp;" style="rounded=1;whiteSpace=wrap;html=1;" vertex="1" parent="UyIMwZcbD3BWaMj1Z1oZ-1">
          <mxGeometry x="580" y="750" width="120" height="60" as="geometry" />
        </mxCell>
      </root>
    </mxGraphModel>
  </diagram>
</mxfile>
